
<svg version="1.0" xmlns="http://www.w3.org/2000/svg"
  width="14" height="16" viewBox="0 0 204.000000 204.000000"
 preserveAspectRatio="xMidYMid meet">

<g transform="translate(0.000000,204.000000) scale(0.100000,-0.100000)"
fill="#a91f6c" stroke="none">
<path d="M81 2022 c-19 -9 -44 -30 -55 -45 -21 -28 -21 -34 -21 -957 0 -923 0
-929 21 -957 11 -15 36 -36 55 -45 32 -17 97 -18 939 -18 842 0 907 1 939 18
19 9 44 30 55 45 21 28 21 34 21 957 0 923 0 929 -21 957 -11 15 -36 36 -55
45 -32 17 -97 18 -939 18 -842 0 -907 -1 -939 -18z m558 -373 c42 -19 46 -19
80 -3 108 51 236 8 294 -100 21 -39 22 -54 22 -251 l0 -210 -87 -3 -88 -3 0
201 c0 199 0 201 -22 209 -13 5 -32 5 -43 1 -19 -7 -20 -18 -23 -209 l-2 -201
-85 0 -85 0 0 190 c0 177 -1 191 -20 210 -24 24 -29 24 -58 4 -21 -15 -22 -20
-22 -210 l0 -194 -86 0 -85 0 3 223 3 222 32 47 c62 88 177 121 272 77z m877
0 c100 -38 175 -135 190 -245 14 -113 -55 -238 -163 -290 -75 -37 -182 -40
-254 -8 -103 48 -169 151 -169 267 0 211 199 349 396 276z m-886 -709 c57 -19
62 -19 93 -4 82 43 214 8 270 -72 41 -58 46 -97 47 -306 l0 -188 -90 0 -90 0
0 200 c0 191 -1 200 -21 210 -16 9 -26 8 -45 -5 l-24 -15 0 -195 0 -195 -85 0
-85 0 0 190 c0 177 -1 191 -20 210 -11 11 -24 20 -30 20 -5 0 -19 -9 -30 -20
-19 -19 -20 -33 -20 -210 l0 -190 -85 0 -85 0 0 208 c0 179 3 212 19 248 33
73 117 128 204 133 10 1 45 -8 77 -19z m852 6 c88 -20 146 -69 195 -161 21
-40 27 -64 27 -120 1 -120 -59 -215 -169 -267 -125 -59 -273 -23 -356 86 -45
59 -59 104 -59 187 1 132 94 247 227 278 54 13 71 12 135 -3z"/>
<path d="M1370 1487 c-41 -14 -80 -68 -80 -111 0 -43 33 -93 74 -112 110 -53
219 91 141 185 -23 27 -38 35 -85 46 -8 2 -31 -2 -50 -8z"/>
<path d="M1370 777 c-81 -28 -105 -137 -43 -199 38 -37 88 -46 137 -23 94 45
87 180 -10 221 -39 16 -39 16 -84 1z"/>
</g>
</svg>